<svg xmlns="http://www.w3.org/2000/svg" version="1.1" xmlns:xlink="http://www.w3.org/1999/xlink" xmlns:svgjs="http://svgjs.dev/svgjs" width="1500" height="431" viewBox="0 0 1500 431"><g transform="matrix(1,0,0,1,-0.9090909090909918,0.4979261292028241)"><svg viewBox="0 0 396 114" data-background-color="#ffffff" preserveAspectRatio="xMidYMid meet" height="431" width="1500" xmlns="http://www.w3.org/2000/svg" xmlns:xlink="http://www.w3.org/1999/xlink"><g id="tight-bounds" transform="matrix(1,0,0,1,0.2400000000000091,-0.1317020388146659)"><svg viewBox="0 0 395.52 114.26340407762932" height="114.26340407762932" width="395.52"><g><svg viewBox="0 0 580.0832832712798 167.58265219231433" height="114.26340407762932" width="395.52"><g transform="matrix(1,0,0,1,0,2.950683456352877)"><svg viewBox="0 0 395.52 161.68128527960857" height="161.68128527960857" width="395.52"><g id="textblocktransform"><svg viewBox="0 0 395.52 161.68128527960857" height="161.68128527960857" width="395.52" id="textblock"><g><svg viewBox="0 0 395.52 71.59664155005382" height="71.59664155005382" width="395.52"><g transform="matrix(1,0,0,1,0,0)"><svg width="395.52" viewBox="4.96 -38.09 272.14000000000004 49.27" height="71.59664155005382" data-palette-color="#aaaaaa"><path d="M9.69 0L4.96 0 4.96-35.01Q7.96-35.35 10.53-35.53 13.11-35.72 15.26-35.72L15.26-35.72Q19.29-35.72 22.05-35.11 24.8-34.5 26.48-33.28 28.15-32.06 28.88-30.22 29.61-28.39 29.61-25.95L29.61-25.95Q29.61-23.66 28.98-21.7 28.34-19.75 26.75-18.32 25.15-16.89 22.27-16.1 19.38-15.31 14.89-15.31L14.89-15.31Q13.72-15.31 12.43-15.36 11.13-15.41 9.69-15.53L9.69-15.53 9.69 0ZM14.92-18.65L14.92-18.65Q19.29-18.65 21.51-19.52 23.73-20.39 24.49-22.01 25.24-23.63 25.24-25.85L25.24-25.85Q25.24-27.39 24.84-28.61 24.44-29.83 23.39-30.66 22.34-31.49 20.45-31.93 18.55-32.37 15.55-32.37L15.55-32.37Q14.31-32.37 12.84-32.3 11.38-32.23 9.69-32.06L9.69-32.06 9.69-18.9Q11.18-18.77 12.49-18.71 13.79-18.65 14.92-18.65ZM40.52 0L36.11 0 36.11-26.42 39.69-26.42 40.13-20.92Q41.5-24.19 43.5-25.46 45.51-26.73 47.75-26.73L47.75-26.73Q48.29-26.73 48.75-26.71 49.22-26.68 49.68-26.61L49.68-26.61 49.34-23.1Q49.09-23.1 48.85-23.11 48.61-23.12 48.34-23.12L48.34-23.12Q45.7-23.12 43.97-22.02 42.23-20.92 41.38-19.08 40.52-17.24 40.52-14.99L40.52-14.99 40.52 0ZM66.11 0.49L66.11 0.49Q62.54 0.49 59.68-1.15 56.81-2.78 55.13-5.85 53.46-8.91 53.46-13.13L53.46-13.13Q53.46-17.53 55.1-20.63 56.73-23.73 59.49-25.37 62.25-27 65.57-27L65.57-27Q68.82-27 71.11-25.56 73.41-24.12 74.64-21.46 75.87-18.8 75.87-15.14L75.87-15.14Q75.87-14.77 75.81-14.14 75.75-13.5 75.7-12.99 75.65-12.48 75.65-12.43L75.65-12.43 58-12.43Q58.2-9.06 59.36-6.93 60.52-4.81 62.41-3.81 64.3-2.81 66.67-2.81L66.67-2.81Q68.94-2.81 70.55-3.45 72.16-4.1 73.8-5.03L73.8-5.03 74.12-5.03 75.14-2.12Q73.51-1 71.2-0.26 68.89 0.49 66.11 0.49ZM58.08-15.31L58.08-15.31 72.07-15.31Q72.02-19.29 70.49-21.5 68.96-23.71 65.79-23.71L65.79-23.71Q62.59-23.71 60.51-21.45 58.42-19.19 58.08-15.31ZM90.76 0.49L90.76 0.49Q87.59 0.49 84.87-0.57 82.15-1.64 80.51-3.69L80.51-3.69 82.83-5.93 83.17-5.93Q84.76-4.1 86.83-3.42 88.91-2.73 90.76-2.73L90.76-2.73Q93.3-2.73 94.69-3.91 96.09-5.08 96.09-7.5L96.09-7.5Q96.09-8.35 95.77-9.05 95.45-9.74 94.47-10.36 93.5-10.99 91.47-11.62L91.47-11.62 88.49-12.55Q85.3-13.55 83.76-14.65 82.22-15.75 81.74-17.04 81.27-18.33 81.27-19.9L81.27-19.9Q81.27-23.19 83.84-25.1 86.42-27 90.84-27L90.84-27Q92.99-27 94.67-26.5 96.35-26 97.6-25.13 98.85-24.27 99.63-23.14L99.63-23.14 97.21-21.17 96.97-21.17Q96.06-22.24 94.52-22.95 92.99-23.66 90.86-23.66L90.86-23.66Q89.01-23.66 87.86-23.21 86.71-22.75 86.17-21.9 85.64-21.04 85.64-19.87L85.64-19.87Q85.64-18.53 86.43-17.72 87.22-16.92 89.93-16.06L89.93-16.06 92.86-15.14Q96.04-14.11 97.59-12.94 99.14-11.77 99.64-10.46 100.14-9.16 100.14-7.67L100.14-7.67Q100.14-4.79 98.87-2.99 97.6-1.2 95.48-0.35 93.35 0.49 90.76 0.49ZM114.76 0.49L114.76 0.49Q111.59 0.49 108.86-0.57 106.14-1.64 104.51-3.69L104.51-3.69 106.83-5.93 107.17-5.93Q108.75-4.1 110.83-3.42 112.91-2.73 114.76-2.73L114.76-2.73Q117.3-2.73 118.69-3.91 120.08-5.08 120.08-7.5L120.08-7.5Q120.08-8.35 119.77-9.05 119.45-9.74 118.47-10.36 117.49-10.99 115.47-11.62L115.47-11.62 112.49-12.55Q109.29-13.55 107.75-14.65 106.22-15.75 105.74-17.04 105.26-18.33 105.26-19.9L105.26-19.9Q105.26-23.19 107.84-25.1 110.41-27 114.83-27L114.83-27Q116.98-27 118.67-26.5 120.35-26 121.6-25.13 122.84-24.27 123.62-23.14L123.62-23.14 121.21-21.17 120.96-21.17Q120.06-22.24 118.52-22.95 116.98-23.66 114.86-23.66L114.86-23.66Q113-23.66 111.86-23.21 110.71-22.75 110.17-21.9 109.63-21.04 109.63-19.87L109.63-19.87Q109.63-18.53 110.43-17.72 111.22-16.92 113.93-16.06L113.93-16.06 116.86-15.14Q120.03-14.11 121.58-12.94 123.13-11.77 123.64-10.46 124.14-9.16 124.14-7.67L124.14-7.67Q124.14-4.79 122.87-2.99 121.6-1.2 119.47-0.35 117.35 0.49 114.76 0.49ZM159.36 0.49L159.36 0.49Q153.89 0.49 150.25-1.84 146.62-4.17 144.81-8.34 143-12.5 143-17.97L143-17.97Q143-23.49 145.02-27.54 147.03-31.59 150.84-33.81 154.65-36.04 159.99-36.04L159.99-36.04Q162.73-36.04 165.04-35.41 167.34-34.79 169.1-33.73 170.86-32.67 171.91-31.3L171.91-31.3 169.57-28.71 169.15-28.71Q168.39-29.57 167.12-30.4 165.85-31.23 164.11-31.76 162.36-32.3 160.14-32.3L160.14-32.3Q156.09-32.3 153.35-30.52 150.62-28.74 149.23-25.51 147.84-22.29 147.84-17.99L147.84-17.99Q147.84-14.6 148.51-11.88 149.18-9.16 150.63-7.23 152.08-5.3 154.45-4.27 156.82-3.25 160.19-3.25L160.19-3.25Q162.58-3.25 164.4-3.58 166.22-3.91 167.49-4.27L167.49-4.27 167.49-15.09 159.51-15.63 159.73-18.77 171.81-18.77 171.81-1.78Q170-1.07 168.06-0.56 166.12-0.05 163.96 0.22 161.8 0.49 159.36 0.49ZM183.99 0L179.57 0 179.57-26.42 183.16-26.42 183.6-20.92Q184.97-24.19 186.97-25.46 188.97-26.73 191.22-26.73L191.22-26.73Q191.75-26.73 192.22-26.71 192.68-26.68 193.15-26.61L193.15-26.61 192.8-23.1Q192.56-23.1 192.32-23.11 192.07-23.12 191.8-23.12L191.8-23.12Q189.17-23.12 187.43-22.02 185.7-20.92 184.85-19.08 183.99-17.24 183.99-14.99L183.99-14.99 183.99 0ZM205.3 0.49L205.3 0.49Q201.52 0.49 199.15-1.42 196.78-3.32 196.78-7.18L196.78-7.18Q196.78-8.94 197.4-10.3 198.03-11.67 199.3-12.61 200.57-13.55 202.57-14.04 204.57-14.53 207.3-14.53L207.3-14.53 213.26-14.53 213.26-17.58Q213.26-20.78 211.82-22.2 210.38-23.63 207.48-23.63L207.48-23.63Q205.6-23.63 203.24-23.03 200.88-22.44 199-21.14L199-21.14 197.71-24.51Q199.05-25.37 200.68-25.92 202.3-26.46 204.07-26.73 205.84-27 207.6-27L207.6-27Q210.58-27 212.85-26.05 215.12-25.1 216.4-22.95 217.68-20.8 217.68-17.21L217.68-17.21 217.68 0 213.97 0 213.65-3.25Q212.6-2 211.36-1.17 210.11-0.34 208.61 0.07 207.11 0.49 205.3 0.49ZM205.99-2.66L205.99-2.66Q208.33-2.66 210.19-3.64 212.04-4.61 213.26-6.18L213.26-6.18 213.26-11.72 208.11-11.72Q205.42-11.72 203.86-11.21 202.3-10.69 201.65-9.68 201.01-8.67 201.01-7.13L201.01-7.13Q201.01-4.64 202.46-3.65 203.91-2.66 205.99-2.66ZM229.93 11.18L225.51 11.18 225.51-26.42 229.23-26.42 229.64-20.97Q230.62-23.97 232.75-25.49 234.89-27 237.84-27L237.84-27Q241.43-27 243.75-25.26 246.07-23.51 247.19-20.41 248.32-17.31 248.32-13.18L248.32-13.18Q248.32-9.18 246.96-6.09 245.61-3 243.1-1.26 240.6 0.49 237.14 0.49L237.14 0.49Q234.72 0.49 232.88-0.22 231.03-0.93 229.81-2.17L229.81-2.17 229.93 1.64 229.93 11.18ZM236.75-2.81L236.75-2.81Q238.58-2.81 239.89-3.52 241.21-4.22 242.07-5.58 242.92-6.93 243.34-8.86 243.75-10.79 243.75-13.23L243.75-13.23Q243.75-16.28 243.15-18.64 242.56-21 241.13-22.34 239.7-23.68 237.21-23.68L237.21-23.68Q234.6-23.68 232.97-22.46 231.35-21.24 230.58-19.08 229.81-16.92 229.79-14.04L229.79-14.04 229.79-6.1Q231.01-4.44 232.8-3.63 234.6-2.81 236.75-2.81ZM259.69 0L255.27 0 255.27-37.6 259.72-38.09 259.72-28 259.57-21.48Q260.94-24.58 263.23-25.79 265.53-27 268.29-27L268.29-27Q272.56-27 274.83-24.22 277.1-21.44 277.1-16.36L277.1-16.36 277.1 0 272.61 0 272.61-16.14Q272.61-19.92 271.41-21.8 270.21-23.68 267.38-23.68L267.38-23.68Q265.18-23.68 263.71-22.91 262.23-22.14 261.34-20.84 260.45-19.53 260.07-17.91 259.69-16.28 259.69-14.55L259.69-14.55 259.69 0Z" opacity="1" transform="matrix(1,0,0,1,0,0)" fill="#aaaaaa" class="wordmark-text-0" data-fill-palette-color="primary" id="text-0"></path></svg></g></svg></g><g transform="matrix(1,0,0,1,0,105.40113905119483)"><svg viewBox="0 0 395.52 56.28014622841374" height="56.28014622841374" width="395.52"><path d="M395.52 0l-9.38 28.14 9.38 28.14h-395.52l9.38-28.14-9.38-28.14z" data-fill-palette-color="tertiary" opacity="1" fill="#d2d2d2"></path><g transform="matrix(1,0,0,1,75.54432,16.902248750570507)"><svg width="244.43135999999998" viewBox="3 -39.65 529.84 50.5" height="22.475648727272727" data-palette-color="#000000"><path d="M3-34.55L9.35-34.55 9.35 0 3 0 3-34.55ZM38.85-27.15Q41.5-27.15 43.1-25.1 44.7-23.05 44.7-19.6L44.7-19.6 44.7 0 38.65 0 38.65-18.95Q38.65-20.85 38.15-21.68 37.65-22.5 36.7-22.5L36.7-22.5Q34.75-22.5 32.95-18.8L32.95-18.8 32.95 0 26.95 0 26.95-18.95Q26.95-22.5 25.05-22.5L25.05-22.5Q23-22.5 21.25-18.8L21.25-18.8 21.25 0 15.2 0 15.2-26.45 20.55-26.45 20.95-23.05Q23.55-27.15 27.2-27.15L27.2-27.15Q29.05-27.15 30.4-26 31.75-24.85 32.45-22.75L32.45-22.75Q35.1-27.15 38.85-27.15L38.85-27.15ZM62.4-27.15Q66.3-27.15 68.3-23.58 70.3-20 70.3-13.3L70.3-13.3Q70.3-6.8 68.02-3.03 65.75 0.75 61.7 0.75L61.7 0.75Q58.5 0.75 56.35-2.1L56.35-2.1 56.35 10.15 50.2 10.85 50.2-26.45 55.65-26.45 55.9-23.25Q57.2-25.25 58.8-26.2 60.4-27.15 62.4-27.15L62.4-27.15ZM60.05-3.95Q61.95-3.95 62.95-6.13 63.95-8.3 63.95-13.25L63.95-13.25Q63.95-18.45 63.1-20.5 62.25-22.55 60.45-22.55L60.45-22.55Q58.15-22.55 56.35-19.25L56.35-19.25 56.35-6.45Q57.95-3.95 60.05-3.95L60.05-3.95ZM86.54-27.1Q87.69-27.1 88.59-26.75L88.59-26.75 87.59-20.85Q86.59-21.1 85.74-21.1L85.74-21.1Q83.84-21.1 82.74-19.45 81.64-17.8 81.04-14.55L81.04-14.55 81.04 0 74.89 0 74.89-26.45 80.24-26.45 80.69-21.85Q82.54-27.1 86.54-27.1L86.54-27.1ZM110.29-13.85Q110.29-13.4 110.14-11.3L110.14-11.3 96.49-11.3Q96.69-7.2 97.92-5.58 99.14-3.95 101.39-3.95L101.39-3.95Q102.94-3.95 104.19-4.48 105.44-5 106.89-6.15L106.89-6.15 109.44-2.65Q105.94 0.75 101.04 0.75L101.04 0.75Q95.84 0.75 93.07-2.85 90.29-6.45 90.29-13L90.29-13Q90.29-19.55 92.94-23.35 95.59-27.15 100.44-27.15L100.44-27.15Q105.09-27.15 107.69-23.78 110.29-20.4 110.29-13.85L110.29-13.85ZM104.29-15.3L104.29-15.65Q104.29-19.4 103.39-21.13 102.49-22.85 100.49-22.85L100.49-22.85Q98.64-22.85 97.67-21.18 96.69-19.5 96.49-15.3L96.49-15.3 104.29-15.3ZM121.94-27.15Q126.64-27.15 129.89-24.05L129.89-24.05 127.54-20.7Q126.14-21.7 124.89-22.2 123.64-22.7 122.34-22.7L122.34-22.7Q120.89-22.7 120.06-21.93 119.24-21.15 119.24-19.8L119.24-19.8Q119.24-18.45 120.16-17.63 121.09-16.8 123.89-15.7L123.89-15.7Q127.34-14.35 128.99-12.5 130.64-10.65 130.64-7.55L130.64-7.55Q130.64-3.7 127.94-1.48 125.24 0.75 121.09 0.75L121.09 0.75Q118.39 0.75 116.11-0.23 113.84-1.2 112.14-2.95L112.14-2.95 115.14-6.25Q117.94-3.8 120.84-3.8L120.84-3.8Q122.49-3.8 123.44-4.67 124.39-5.55 124.39-7.1L124.39-7.1Q124.39-8.25 123.99-8.97 123.59-9.7 122.59-10.33 121.59-10.95 119.59-11.7L119.59-11.7Q116.14-13.05 114.66-14.85 113.19-16.65 113.19-19.45L113.19-19.45Q113.19-22.8 115.56-24.98 117.94-27.15 121.94-27.15L121.94-27.15ZM141.84-27.15Q146.54-27.15 149.79-24.05L149.79-24.05 147.44-20.7Q146.04-21.7 144.79-22.2 143.54-22.7 142.24-22.7L142.24-22.7Q140.79-22.7 139.96-21.93 139.14-21.15 139.14-19.8L139.14-19.8Q139.14-18.45 140.06-17.63 140.99-16.8 143.79-15.7L143.79-15.7Q147.24-14.35 148.89-12.5 150.54-10.65 150.54-7.55L150.54-7.55Q150.54-3.7 147.84-1.48 145.14 0.75 140.99 0.75L140.99 0.75Q138.29 0.75 136.01-0.23 133.74-1.2 132.04-2.95L132.04-2.95 135.04-6.25Q137.84-3.8 140.74-3.8L140.74-3.8Q142.39-3.8 143.34-4.67 144.29-5.55 144.29-7.1L144.29-7.1Q144.29-8.25 143.89-8.97 143.49-9.7 142.49-10.33 141.49-10.95 139.49-11.7L139.49-11.7Q136.04-13.05 134.56-14.85 133.09-16.65 133.09-19.45L133.09-19.45Q133.09-22.8 135.46-24.98 137.84-27.15 141.84-27.15L141.84-27.15ZM163.78-27.15Q168.78-27.15 171.56-23.65 174.33-20.15 174.33-13.25L174.33-13.25Q174.33-6.65 171.53-2.95 168.73 0.75 163.78 0.75L163.78 0.75Q158.83 0.75 156.03-2.88 153.23-6.5 153.23-13.25L153.23-13.25Q153.23-19.95 156.03-23.55 158.83-27.15 163.78-27.15L163.78-27.15ZM163.78-22.5Q161.63-22.5 160.63-20.38 159.63-18.25 159.63-13.25L159.63-13.25Q159.63-8.2 160.63-6.08 161.63-3.95 163.78-3.95L163.78-3.95Q165.93-3.95 166.93-6.08 167.93-8.2 167.93-13.25L167.93-13.25Q167.93-18.3 166.93-20.4 165.93-22.5 163.78-22.5L163.78-22.5ZM186.23-27.15Q190.93-27.15 194.18-24.05L194.18-24.05 191.83-20.7Q190.43-21.7 189.18-22.2 187.93-22.7 186.63-22.7L186.63-22.7Q185.18-22.7 184.36-21.93 183.53-21.15 183.53-19.8L183.53-19.8Q183.53-18.45 184.46-17.63 185.38-16.8 188.18-15.7L188.18-15.7Q191.63-14.35 193.28-12.5 194.93-10.65 194.93-7.55L194.93-7.55Q194.93-3.7 192.23-1.48 189.53 0.75 185.38 0.75L185.38 0.75Q182.68 0.75 180.41-0.23 178.13-1.2 176.43-2.95L176.43-2.95 179.43-6.25Q182.23-3.8 185.13-3.8L185.13-3.8Q186.78-3.8 187.73-4.67 188.68-5.55 188.68-7.1L188.68-7.1Q188.68-8.25 188.28-8.97 187.88-9.7 186.88-10.33 185.88-10.95 183.88-11.7L183.88-11.7Q180.43-13.05 178.96-14.85 177.48-16.65 177.48-19.45L177.48-19.45Q177.48-22.8 179.86-24.98 182.23-27.15 186.23-27.15L186.23-27.15ZM226.58-29.85L228.13-25.1Q227.08-24.6 225.6-24.4 224.13-24.2 221.93-24.2L221.93-24.2Q224.03-23.2 225.05-21.53 226.08-19.85 226.08-17.4L226.08-17.4Q226.08-13.4 223.63-10.95 221.18-8.5 216.98-8.5L216.98-8.5Q215.73-8.5 214.43-8.9L214.43-8.9Q213.53-8.15 213.53-6.85L213.53-6.85Q213.53-5.85 214.08-5.35 214.63-4.85 216.13-4.85L216.13-4.85 218.93-4.85Q222.93-4.85 225.28-2.78 227.63-0.7 227.63 2.5L227.63 2.5Q227.63 6.3 224.7 8.58 221.78 10.85 216.38 10.85L216.38 10.85Q210.68 10.85 208.4 8.75 206.13 6.65 206.13 2.6L206.13 2.6 211.58 2.6Q211.58 4.75 212.58 5.65 213.58 6.55 216.43 6.55L216.43 6.55Q219.18 6.55 220.33 5.6 221.48 4.65 221.48 2.9L221.48 2.9Q221.48 1.2 220.53 0.4 219.58-0.4 217.58-0.4L217.58-0.4 215.68-0.4Q211.88-0.4 210.13-1.75 208.38-3.1 208.38-5.45L208.38-5.45Q208.38-6.8 209.1-8.03 209.83-9.25 211.08-10.2L211.08-10.2Q209.03-11.5 208.08-13.3 207.13-15.1 207.13-17.7L207.13-17.7Q207.13-22.05 209.73-24.58 212.33-27.1 216.73-27.1L216.73-27.1Q219.98-27.1 222.1-27.8 224.23-28.5 226.58-29.85L226.58-29.85ZM216.73-23Q214.98-23 214.08-21.75 213.18-20.5 213.18-17.8L213.18-17.8Q213.18-15.25 214.08-13.88 214.98-12.5 216.68-12.5L216.68-12.5Q218.43-12.5 219.28-13.73 220.13-14.95 220.13-17.85L220.13-17.85Q220.13-20.55 219.3-21.78 218.48-23 216.73-23L216.73-23ZM242.52-27.1Q243.67-27.1 244.57-26.75L244.57-26.75 243.57-20.85Q242.57-21.1 241.72-21.1L241.72-21.1Q239.82-21.1 238.72-19.45 237.62-17.8 237.02-14.55L237.02-14.55 237.02 0 230.87 0 230.87-26.45 236.22-26.45 236.67-21.85Q238.52-27.1 242.52-27.1L242.52-27.1ZM264.32-6.4Q264.32-5.1 264.67-4.48 265.02-3.85 265.82-3.45L265.82-3.45 264.57 0.65Q262.52 0.4 261.3-0.45 260.07-1.3 259.47-3.05L259.47-3.05Q257.17 0.75 253.02 0.75L253.02 0.75Q249.72 0.75 247.77-1.48 245.82-3.7 245.82-7.4L245.82-7.4Q245.82-11.7 248.5-13.95 251.17-16.2 256.27-16.2L256.27-16.2 258.32-16.2 258.32-18.05Q258.32-20.55 257.45-21.58 256.57-22.6 254.62-22.6L254.62-22.6Q252.27-22.6 248.77-21.3L248.77-21.3 247.37-25.3Q249.37-26.2 251.52-26.68 253.67-27.15 255.62-27.15L255.62-27.15Q264.32-27.15 264.32-18.35L264.32-18.35 264.32-6.4ZM254.67-3.7Q257.07-3.7 258.32-7L258.32-7 258.32-12.55 256.87-12.55Q254.32-12.55 253.15-11.4 251.97-10.25 251.97-7.85L251.97-7.85Q251.97-5.8 252.67-4.75 253.37-3.7 254.67-3.7L254.67-3.7ZM279.82-33.05Q278.42-33.05 277.74-32.3 277.07-31.55 277.07-30L277.07-30 277.07-26.45 282.12-26.45 281.42-22 277.07-22 277.07 0 270.92 0 270.92-22 267.62-22 267.62-26.45 270.92-26.45 270.92-29.8Q270.92-33.4 273.02-35.55 275.12-37.7 279.02-37.7L279.02-37.7Q282.07-37.7 284.92-36.2L284.92-36.2 283.22-32.2Q281.47-33.05 279.82-33.05L279.82-33.05ZM284.92-26.45L291.07-26.45 291.07 0 284.92 0 284.92-26.45ZM287.97-39.65Q289.62-39.65 290.64-38.6 291.67-37.55 291.67-35.9L291.67-35.9Q291.67-34.3 290.64-33.25 289.62-32.2 287.97-32.2L287.97-32.2Q286.32-32.2 285.29-33.25 284.27-34.3 284.27-35.9L284.27-35.9Q284.27-37.55 285.29-38.6 286.32-39.65 287.97-39.65L287.97-39.65ZM306.26-27.15Q308.41-27.15 310.16-26.43 311.91-25.7 313.51-24.15L313.51-24.15 310.86-20.65Q309.76-21.55 308.79-21.98 307.81-22.4 306.66-22.4L306.66-22.4Q304.41-22.4 303.26-20.28 302.11-18.15 302.11-13.1L302.11-13.1Q302.11-8.2 303.29-6.2 304.46-4.2 306.66-4.2L306.66-4.2Q307.76-4.2 308.66-4.6 309.56-5 310.76-5.85L310.76-5.85 313.51-2.3Q310.31 0.75 306.36 0.75L306.36 0.75Q301.26 0.75 298.44-2.73 295.61-6.2 295.61-13L295.61-13Q295.61-17.4 296.91-20.6 298.21-23.8 300.64-25.48 303.06-27.15 306.26-27.15L306.26-27.15ZM325.96-27.15Q330.96-27.15 333.74-23.65 336.51-20.15 336.51-13.25L336.51-13.25Q336.51-6.65 333.71-2.95 330.91 0.75 325.96 0.75L325.96 0.75Q321.01 0.75 318.21-2.88 315.41-6.5 315.41-13.25L315.41-13.25Q315.41-19.95 318.21-23.55 321.01-27.15 325.96-27.15L325.96-27.15ZM325.96-22.5Q323.81-22.5 322.81-20.38 321.81-18.25 321.81-13.25L321.81-13.25Q321.81-8.2 322.81-6.08 323.81-3.95 325.96-3.95L325.96-3.95Q328.11-3.95 329.11-6.08 330.11-8.2 330.11-13.25L330.11-13.25Q330.11-18.3 329.11-20.4 328.11-22.5 325.96-22.5L325.96-22.5ZM348.41-27.15Q353.11-27.15 356.36-24.05L356.36-24.05 354.01-20.7Q352.61-21.7 351.36-22.2 350.11-22.7 348.81-22.7L348.81-22.7Q347.36-22.7 346.53-21.93 345.71-21.15 345.71-19.8L345.71-19.8Q345.71-18.45 346.63-17.63 347.56-16.8 350.36-15.7L350.36-15.7Q353.81-14.35 355.46-12.5 357.11-10.65 357.11-7.55L357.11-7.55Q357.11-3.7 354.41-1.48 351.71 0.75 347.56 0.75L347.56 0.75Q344.86 0.75 342.58-0.23 340.31-1.2 338.61-2.95L338.61-2.95 341.61-6.25Q344.41-3.8 347.31-3.8L347.31-3.8Q348.96-3.8 349.91-4.67 350.86-5.55 350.86-7.1L350.86-7.1Q350.86-8.25 350.46-8.97 350.06-9.7 349.06-10.33 348.06-10.95 346.06-11.7L346.06-11.7Q342.61-13.05 341.13-14.85 339.66-16.65 339.66-19.45L339.66-19.45Q339.66-22.8 342.03-24.98 344.41-27.15 348.41-27.15L348.41-27.15ZM389.65-13.85Q389.65-13.4 389.5-11.3L389.5-11.3 375.85-11.3Q376.05-7.2 377.28-5.58 378.5-3.95 380.75-3.95L380.75-3.95Q382.3-3.95 383.55-4.48 384.8-5 386.25-6.15L386.25-6.15 388.8-2.65Q385.3 0.75 380.4 0.75L380.4 0.75Q375.2 0.75 372.43-2.85 369.65-6.45 369.65-13L369.65-13Q369.65-19.55 372.3-23.35 374.95-27.15 379.8-27.15L379.8-27.15Q384.45-27.15 387.05-23.78 389.65-20.4 389.65-13.85L389.65-13.85ZM383.65-15.3L383.65-15.65Q383.65-19.4 382.75-21.13 381.85-22.85 379.85-22.85L379.85-22.85Q378-22.85 377.03-21.18 376.05-19.5 375.85-15.3L375.85-15.3 383.65-15.3ZM417.6-27.15Q420.25-27.15 421.85-25.1 423.45-23.05 423.45-19.6L423.45-19.6 423.45 0 417.4 0 417.4-18.95Q417.4-20.85 416.9-21.68 416.4-22.5 415.45-22.5L415.45-22.5Q413.5-22.5 411.7-18.8L411.7-18.8 411.7 0 405.7 0 405.7-18.95Q405.7-22.5 403.8-22.5L403.8-22.5Q401.75-22.5 400-18.8L400-18.8 400 0 393.95 0 393.95-26.45 399.3-26.45 399.7-23.05Q402.3-27.15 405.95-27.15L405.95-27.15Q407.8-27.15 409.15-26 410.5-24.85 411.2-22.75L411.2-22.75Q413.85-27.15 417.6-27.15L417.6-27.15ZM456.75-29.85L458.3-25.1Q457.25-24.6 455.77-24.4 454.3-24.2 452.1-24.2L452.1-24.2Q454.2-23.2 455.22-21.53 456.25-19.85 456.25-17.4L456.25-17.4Q456.25-13.4 453.8-10.95 451.35-8.5 447.15-8.5L447.15-8.5Q445.9-8.5 444.6-8.9L444.6-8.9Q443.7-8.15 443.7-6.85L443.7-6.85Q443.7-5.85 444.25-5.35 444.8-4.85 446.3-4.85L446.3-4.85 449.1-4.85Q453.1-4.85 455.45-2.78 457.8-0.7 457.8 2.5L457.8 2.5Q457.8 6.3 454.87 8.58 451.95 10.85 446.55 10.85L446.55 10.85Q440.85 10.85 438.57 8.75 436.3 6.65 436.3 2.6L436.3 2.6 441.75 2.6Q441.75 4.75 442.75 5.65 443.75 6.55 446.6 6.55L446.6 6.55Q449.35 6.55 450.5 5.6 451.65 4.65 451.65 2.9L451.65 2.9Q451.65 1.2 450.7 0.4 449.75-0.4 447.75-0.4L447.75-0.4 445.85-0.4Q442.05-0.4 440.3-1.75 438.55-3.1 438.55-5.45L438.55-5.45Q438.55-6.8 439.27-8.03 440-9.25 441.25-10.2L441.25-10.2Q439.2-11.5 438.25-13.3 437.3-15.1 437.3-17.7L437.3-17.7Q437.3-22.05 439.9-24.58 442.5-27.1 446.9-27.1L446.9-27.1Q450.15-27.1 452.27-27.8 454.4-28.5 456.75-29.85L456.75-29.85ZM446.9-23Q445.15-23 444.25-21.75 443.35-20.5 443.35-17.8L443.35-17.8Q443.35-15.25 444.25-13.88 445.15-12.5 446.85-12.5L446.85-12.5Q448.6-12.5 449.45-13.73 450.3-14.95 450.3-17.85L450.3-17.85Q450.3-20.55 449.47-21.78 448.65-23 446.9-23L446.9-23ZM479.89-13.85Q479.89-13.4 479.74-11.3L479.74-11.3 466.09-11.3Q466.29-7.2 467.52-5.58 468.74-3.95 470.99-3.95L470.99-3.95Q472.54-3.95 473.79-4.48 475.04-5 476.49-6.15L476.49-6.15 479.04-2.65Q475.54 0.75 470.64 0.75L470.64 0.75Q465.44 0.75 462.67-2.85 459.89-6.45 459.89-13L459.89-13Q459.89-19.55 462.54-23.35 465.19-27.15 470.04-27.15L470.04-27.15Q474.69-27.15 477.29-23.78 479.89-20.4 479.89-13.85L479.89-13.85ZM473.89-15.3L473.89-15.65Q473.89-19.4 472.99-21.13 472.09-22.85 470.09-22.85L470.09-22.85Q468.24-22.85 467.27-21.18 466.29-19.5 466.09-15.3L466.09-15.3 473.89-15.3ZM495.84-27.1Q496.99-27.1 497.89-26.75L497.89-26.75 496.89-20.85Q495.89-21.1 495.04-21.1L495.04-21.1Q493.14-21.1 492.04-19.45 490.94-17.8 490.34-14.55L490.34-14.55 490.34 0 484.19 0 484.19-26.45 489.54-26.45 489.99-21.85Q491.84-27.1 495.84-27.1L495.84-27.1ZM517.64-6.4Q517.64-5.1 517.99-4.48 518.34-3.85 519.14-3.45L519.14-3.45 517.89 0.65Q515.84 0.4 514.61-0.45 513.39-1.3 512.79-3.05L512.79-3.05Q510.49 0.75 506.34 0.75L506.34 0.75Q503.04 0.75 501.09-1.48 499.14-3.7 499.14-7.4L499.14-7.4Q499.14-11.7 501.81-13.95 504.49-16.2 509.59-16.2L509.59-16.2 511.64-16.2 511.64-18.05Q511.64-20.55 510.76-21.58 509.89-22.6 507.94-22.6L507.94-22.6Q505.59-22.6 502.09-21.3L502.09-21.3 500.69-25.3Q502.69-26.2 504.84-26.68 506.99-27.15 508.94-27.15L508.94-27.15Q517.64-27.15 517.64-18.35L517.64-18.35 517.64-6.4ZM507.99-3.7Q510.39-3.7 511.64-7L511.64-7 511.64-12.55 510.19-12.55Q507.64-12.55 506.46-11.4 505.29-10.25 505.29-7.85L505.29-7.85Q505.29-5.8 505.99-4.75 506.69-3.7 507.99-3.7L507.99-3.7ZM529.04 0.75Q526.34 0.75 524.76-0.93 523.19-2.6 523.19-5.4L523.19-5.4 523.19-37.05 529.34-37.7 529.34-5.65Q529.34-5 529.63-4.6 529.94-4.2 530.54-4.2L530.54-4.2Q530.88-4.2 531.21-4.3 531.54-4.4 531.63-4.4L531.63-4.4 532.84-0.2Q531.13 0.75 529.04 0.75L529.04 0.75Z" opacity="1" transform="matrix(1,0,0,1,0,0)" fill="#000000" class="slogan-text-1" data-fill-palette-color="quaternary" id="text-1"></path></svg></g></svg></g></svg></g></svg></g><g transform="matrix(1,0,0,1,412.4222487505705,0)"><svg viewBox="0 0 167.66103452070934 167.58265219231433" height="167.58265219231433" width="167.66103452070934"><g><svg xmlns="http://www.w3.org/2000/svg" xmlns:xlink="http://www.w3.org/1999/xlink" version="1.1" x="0" y="0" viewBox="0.7607695154586737 0.7749999999999999 30.43923048454133 30.424999999999997" enable-background="new 0 0 32 32" xml:space="preserve" height="167.58265219231433" width="167.66103452070934" class="icon-icon-0" data-fill-palette-color="accent" id="icon-0"><g fill="#aaaaaa" data-fill-palette-color="accent"><g fill="#aaaaaa" data-fill-palette-color="accent"><path fill="#aaaaaa" d="M1.5 31.2c-0.2 0-0.4-0.1-0.5-0.2-0.2-0.2-0.3-0.4-0.2-0.7l3.7-19.1c0.1-0.3 0.3-0.6 0.6-0.6l9.6-1.3c0.2 0 0.5 0 0.6 0.2l7.2 7.2c0.2 0.2 0.2 0.4 0.2 0.6l-1.3 9.6c0 0.3-0.3 0.6-0.6 0.6L1.6 31.2H1.5zM5.8 12.1L2.4 29.6l17.5-3.4 1.2-8.7-6.7-6.7L5.8 12.1z" data-fill-palette-color="accent"></path></g><g fill="#aaaaaa" data-fill-palette-color="accent"><rect x="5.2" y="19.8" transform="matrix(-0.7071 -0.7071 0.7071 -0.7071 -8.3465 48.7211)" fill="#aaaaaa" width="1.5" height="12.6" data-fill-palette-color="accent"></rect></g><g fill="#aaaaaa" data-fill-palette-color="accent"><path fill="#aaaaaa" d="M12 23.1c-0.8 0-1.6-0.3-2.2-0.9-0.6-0.6-0.9-1.3-0.9-2.2 0-0.8 0.3-1.6 0.9-2.2 1.2-1.2 3.2-1.2 4.3 0 1.2 1.2 1.2 3.1 0 4.3C13.6 22.8 12.8 23.1 12 23.1zM12 18.4c-0.4 0-0.8 0.2-1.1 0.5s-0.5 0.7-0.5 1.1 0.2 0.8 0.5 1.1c0.6 0.6 1.6 0.6 2.2 0 0.6-0.6 0.6-1.6 0-2.2C12.8 18.6 12.4 18.4 12 18.4z" data-fill-palette-color="accent"></path></g><g fill="#aaaaaa" data-fill-palette-color="accent"><path fill="#aaaaaa" d="M23.8 18.7c-0.9 0-1.8-0.4-2.4-1l-7.1-7.1c-1.3-1.3-1.3-3.5 0-4.8L19.1 1c0.3-0.3 0.8-0.3 1.1 0L31 11.8c0.1 0.1 0.2 0.3 0.2 0.5s-0.1 0.4-0.2 0.5l-4.9 4.9C25.5 18.4 24.7 18.7 23.8 18.7zM19.7 2.6l-4.3 4.3c-0.7 0.7-0.7 2 0 2.7l7.1 7.1c0.7 0.7 2 0.7 2.7 0l4.3-4.3L19.7 2.6z" data-fill-palette-color="accent"></path></g></g></svg></g></svg></g></svg></g><defs></defs></svg><rect width="395.52" height="114.26340407762932" fill="none" stroke="none" visibility="hidden"></rect></g></svg></g></svg>